<svg id="Capa_1" enable-background="new 0 0 516.208 516.208" height="512" viewBox="0 0 516.208 516.208" width="512" xmlns="http://www.w3.org/2000/svg"><g><path d="m469.104 30h-422c-8.284 0-15 6.716-15 15v288.416c0 8.284 6.716 15 15 15h422c8.284 0 15-6.716 15-15v-288.416c0-8.284-6.716-15-15-15z" fill="#ecf9fd"/><path d="m469.104 30h-211v318.416h211c8.284 0 15-6.716 15-15v-288.416c0-8.284-6.716-15-15-15z" fill="#d9f3fc"/><circle cx="258.104" cy="135" fill="#ffe470" r="45"/><path d="m258.104 90v90c24.814 0 45-20.186 45-45 0-24.812-20.186-45-45-45z" fill="#fabe2c"/><path d="m303.816 348.416-115.801-152.782c-2.844-3.625-7.194-5.741-11.801-5.741-.007 0-.015 0-.021 0-4.614.007-8.969 2.137-11.807 5.775l-115.105 152.748z" fill="#8dc2eb"/><path d="m467.595 348.416-115.801-152.782c-2.844-3.625-7.194-5.741-11.801-5.741-.007 0-.015 0-.021 0-4.614.007-8.969 2.137-11.807 5.775l-115.105 152.748z" fill="#5e9ff6"/><path d="m258.104 348.416h209.491l-115.801-152.782c-2.844-3.625-7.194-5.741-11.801-5.741-.007 0-.015 0-.021 0-4.614.007-8.969 2.137-11.807 5.775l-70.061 92.974z" fill="#3d6def"/><path d="m77.104 0h-60c-8.284 0-15 6.716-15 15v60c0 8.284 6.716 15 15 15h60c8.284 0 15-6.716 15-15v-60c0-8.284-6.716-15-15-15z" fill="#00dd80"/><path d="m77.104 288.416h-60c-8.284 0-15 6.716-15 15v60c0 8.284 6.716 15 15 15h60c8.284 0 15-6.716 15-15v-60c0-8.284-6.716-15-15-15z" fill="#00dd80"/><path d="m499.104 0h-60c-8.284 0-15 6.716-15 15v60c0 8.284 6.716 15 15 15h60c8.284 0 15-6.716 15-15v-60c0-8.284-6.716-15-15-15z" fill="#00aa95"/><path d="m499.104 288.416h-60c-8.284 0-15 6.716-15 15v60c0 8.284 6.716 15 15 15h60c8.284 0 15-6.716 15-15v-60c0-8.284-6.716-15-15-15z" fill="#00aa95"/><path d="m380.896 516.208-141-141" fill="none"/><path d="m372.294 486.394-39.978-39.978 22.393-22.393c3.853-3.853 5.314-9.491 3.816-14.729-1.497-5.238-5.718-9.253-11.024-10.487l-86-20c-5.045-1.173-10.342.34-14.004 4.003-3.664 3.663-5.177 8.958-4.004 14.004l20 86c1.234 5.307 5.249 9.527 10.487 11.025 1.359.389 2.746.578 4.122.578 3.923 0 7.755-1.542 10.607-4.394l22.394-22.394 39.978 39.978c2.929 2.929 6.768 4.394 10.606 4.394s7.678-1.464 10.606-4.394c5.86-5.858 5.86-15.356.001-21.213z" fill="#8dc2eb"/><path d="m372.294 486.394-39.978-39.978 22.393-22.393c3.853-3.853 5.314-9.491 3.816-14.729-1.497-5.238-5.718-9.253-11.024-10.487l-86-20c-5.045-1.173-10.342.34-14.004 4.003l124.797 124.797c5.859-5.858 5.859-15.356 0-21.213z" fill="#5e9ff6"/></g></svg>