<svg version="1.2" baseProfile="tiny-ps" xmlns="http://www.w3.org/2000/svg" viewBox="0 0 2000 2000" width="2000" height="2000">
	<title>LogoRAF-ai</title>
	<style>
		tspan { white-space:pre }
		.shp0 { fill: #ffffff } 
	</style>
	<g id="Layer 1">
		<g id="&lt;Group&gt;">
			<path id="&lt;Path&gt;" class="shp0" d="M648.21 952.86C644.11 947.01 645.55 938.87 651.4 934.77L670.97 921.07C676.82 916.97 684.96 918.41 689.06 924.26L857.94 1165.44C862.03 1171.29 860.6 1179.43 854.75 1183.53L835.18 1197.23C829.32 1201.33 821.18 1199.89 817.09 1194.04L648.21 952.86Z" />
		</g>
		<g id="&lt;Group&gt;">
			<path id="&lt;Path&gt;" class="shp0" d="M647.91 926.04L636.17 891.07C633.9 884.3 637.58 876.9 644.35 874.63L822.99 814.66C829.76 812.38 837.16 816.07 839.44 822.84L851.17 857.8" />
		</g>
		<g id="&lt;Group&gt;">
			<path id="&lt;Path&gt;" class="shp0" d="M648.68 936.02L665.24 902.64C668.42 896.24 676.53 892.93 683.28 895.28L844.93 951.76C851.67 954.12 854.59 961.28 851.42 967.68L834.86 1001.07" />
		</g>
		<g id="&lt;Group&gt;">
			<path id="&lt;Path&gt;" class="shp0" d="M1358.9 917.58L1369.24 882.18C1371.24 875.32 1367.27 868.08 1360.41 866.07L1183.79 814.5C1176.93 812.5 1169.68 816.47 1167.68 823.32L1157.34 858.73" />
		</g>
		<g id="&lt;Group&gt;">
			<path id="&lt;Path&gt;" class="shp0" d="M1359.81 926.9L1341.94 894.2C1338.51 887.93 1330.27 884.95 1323.63 887.57L1164.35 950.43C1157.7 953.06 1155.07 960.33 1158.5 966.6L1176.37 999.3" />
		</g>
		<g id="&lt;Group&gt;">
			<path id="&lt;Path&gt;" class="shp0" d="M1369.65 880.97L1332.77 881.21C1325.63 881.25 1319.82 887.14 1319.87 894.28L1321.73 1186.6C1321.78 1193.74 1327.66 1199.55 1334.8 1199.5L1371.68 1199.26" />
		</g>
		<g id="&lt;Group&gt;">
			<path id="&lt;Path&gt;" class="shp0" d="M635.58 888.13L672.46 888.29C679.61 888.33 685.42 894.2 685.39 901.34L684.12 1191.58C684.09 1198.72 678.22 1204.54 671.07 1204.51L634.2 1204.34" />
		</g>
		<g id="&lt;Group&gt;">
			<path id="&lt;Path&gt;" class="shp0" d="M1007.42 837.76C1013.49 840.51 1016.21 847.74 1013.45 853.81L898.44 1107.37C895.68 1113.44 888.46 1116.16 882.38 1113.4L862.06 1104.19C855.98 1101.43 853.27 1094.21 856.02 1088.13L971.04 834.58C973.8 828.5 981.02 825.78 987.1 828.54L1007.42 837.76Z" />
		</g>
		<g id="&lt;Group&gt;">
			<g id="&lt;Group&gt;">
				<path id="&lt;Path&gt;" class="shp0" d="M993.43 1005.09C999.87 1005.09 999.88 995.09 993.43 995.09C987 995.09 986.99 1005.09 993.43 1005.09Z" />
			</g>
		</g>
		<g id="&lt;Group&gt;">
			<path id="&lt;Path&gt;" class="shp0" d="M1124.13 824.46C1118.98 819.52 1110.72 819.69 1105.77 824.84L867.66 1072.93C862.72 1078.08 858.1 1083.54 857.41 1085.06C856.72 1086.58 860.38 1091.88 865.53 1096.82L881.31 1111.96C886.47 1116.91 894.73 1116.74 899.68 1111.59L1141.75 859.37C1146.7 854.21 1146.53 845.95 1141.37 841L1124.13 824.46Z" />
		</g>
		<g id="&lt;Group&gt;">
			<g id="&lt;Group&gt;">
				<path id="&lt;Path&gt;" class="shp0" d="M1067.06 937.18C1071.68 932.37 1072.75 923.7 1069.45 917.9L1013.43 819.85C1010.12 814.06 1002.68 812.03 996.88 815.34L977.51 826.41C971.72 829.72 969.68 837.16 972.99 842.96L1035.82 952.94C1039.13 958.73 1045.62 959.53 1050.24 954.72L1067.06 937.18Z" />
			</g>
			<g id="&lt;Group&gt;">
				<path id="&lt;Path&gt;" class="shp0" d="M1092.2 955.24C1088.89 949.45 1082.48 948.71 1077.95 953.61L1061.25 971.63C1056.72 976.52 1055.72 985.26 1059.03 991.06L1117.1 1092.71C1120.41 1098.5 1127.86 1100.53 1133.65 1097.22L1153.02 1086.15C1158.82 1082.84 1160.85 1075.4 1157.54 1069.61L1092.2 955.24Z" />
			</g>
		</g>
	</g>
</svg>