<svg id="Capa_1" enable-background="new 0 0 512 512" height="512" viewBox="0 0 512 512" width="512" xmlns="http://www.w3.org/2000/svg"><g><path d="m390 60h-350c-8.284 0-15 6.716-15 15v317c0 8.284 6.716 15 15 15h350c8.284 0 15-6.716 15-15v-317c0-8.284-6.716-15-15-15z" fill="#ecf9fd"/><path d="m390 60h-173.5v347h173.5c8.284 0 15-6.716 15-15v-317c0-8.284-6.716-15-15-15z" fill="#d9f3fc"/><path d="m265 332h-150c-8.284 0-15-6.716-15-15s6.716-15 15-15h150c8.284 0 15 6.716 15 15s-6.716 15-15 15z" fill="#4e6ba6"/><path d="m265 302h-48.5v30h48.5c8.284 0 15-6.716 15-15s-6.716-15-15-15z" fill="#28487a"/><path d="m315 272h-200c-8.284 0-15-6.716-15-15s6.716-15 15-15h200c8.284 0 15 6.716 15 15s-6.716 15-15 15z" fill="#4e6ba6"/><path d="m315 242h-98.5v30h98.5c8.284 0 15-6.716 15-15s-6.716-15-15-15z" fill="#28487a"/><path d="m315 120h-200c-8.284 0-15 6.716-15 15v61c0 8.284 6.716 15 15 15h200c8.284 0 15-6.716 15-15v-61c0-8.284-6.716-15-15-15z" fill="#f37"/><path d="m315 120h-98.5v91h98.5c8.284 0 15-6.716 15-15v-61c0-8.284-6.716-15-15-15z" fill="#cc295f"/><path d="m330 0h-290c-8.284 0-15 6.716-15 15v60h320v-60c0-8.284-6.716-15-15-15z" fill="#8dc2eb"/><path d="m330 0h-113.5v75h128.5v-60c0-8.284-6.716-15-15-15z" fill="#5e9ff6"/><path d="m390 0h-60v75h75v-60c0-8.284-6.716-15-15-15z" fill="#3d6def"/><path d="m473.82 274.969c-8.499-8.501-19.8-13.183-31.82-13.183-12.021 0-23.321 4.682-31.819 13.182l-109.001 109c-17.543 17.545-17.543 46.094 0 63.638 8.499 8.5 19.799 13.182 31.82 13.182 12.02 0 23.321-4.682 31.819-13.181l109-108.999c8.5-8.5 13.182-19.801 13.182-31.82s-4.682-23.321-13.181-31.819z" fill="#ffe470"/><path d="m301.181 447.607c8.499 8.498 19.798 13.18 31.818 13.18s23.321-4.682 31.819-13.181l109-108.999c8.5-8.5 13.182-19.801 13.182-31.82s-4.682-23.32-13.181-31.818z" fill="#fabe2c"/><path d="m311.787 362c-19.704 0-38.099 7.929-51.795 22.326-12.504 13.143-20.706 31.208-23.096 50.863-3.213 26.428-18.385 54.3-18.53 54.565-2.564 4.646-2.481 10.302.217 14.872 2.698 4.569 7.61 7.373 12.917 7.373h80.287c41.355 0 75-33.645 75-75s-33.645-74.999-75-74.999z" fill="#f37"/><path d="m236.789 512h74.998c41.355 0 75-33.645 75-75 0-20.678-8.41-39.427-21.99-53.008z" fill="#cc295f"/></g></svg>